HIERARCHY
ROOT hip
{
  OFFSET 0 0 0
  CHANNELS 6 Xposition Yposition Zposition Zrotation Yrotation Xrotation
  JOINT abdomen
  {
    OFFSET 0 20.6881 -0.73152
    CHANNELS 3 Zrotation Xrotation Yrotation
    JOINT chest
    {
      OFFSET 0 11.7043 -0.48768
      CHANNELS 3 Zrotation Xrotation Yrotation
      JOINT neck
      {
        OFFSET 0 22.1894 -2.19456
        CHANNELS 3 Zrotation Xrotation Yrotation
        JOINT head
        {
          OFFSET -0.24384 7.07133 1.2192
          CHANNELS 3 Zrotation Xrotation Yrotation
          JOINT leftEye
          {
            OFFSET 4.14528 8.04674 8.04672
            CHANNELS 3 Zrotation Xrotation Yrotation
            End Site
            {
              OFFSET 1 0 0
            }
          }
          JOINT rightEye
          {
            OFFSET -3.6576 8.04674 8.04672
            CHANNELS 3 Zrotation Xrotation Yrotation
            End Site
            {
              OFFSET 1 0 0
            }
          }
        }
      }
      JOINT rCollar
      {
        OFFSET -2.68224 19.2634 -4.8768
        CHANNELS 3 Zrotation Xrotation Yrotation
        JOINT rShldr
        {
          OFFSET -8.77824 -1.95073 1.46304
          CHANNELS 3 Zrotation Xrotation Yrotation
          JOINT rForeArm
          {
            OFFSET -28.1742 -1.7115 0.48768
            CHANNELS 3 Zrotation Xrotation Yrotation
            JOINT rHand
            {
              OFFSET -22.5879 0.773209 7.07136
              CHANNELS 3 Zrotation Xrotation Yrotation
              JOINT rThumb1
              {
                OFFSET -1.2192 -0.487915 3.41376
                CHANNELS 3 Zrotation Xrotation Yrotation
                JOINT rThumb2
                {
                  OFFSET -3.37035 -0.52449 3.41376
                  CHANNELS 3 Zrotation Xrotation Yrotation
                  End Site
                  {
                    OFFSET -1.78271 -1.18214 1.43049
                  }
                }
              }
              JOINT rIndex1
              {
                OFFSET -7.75947 0.938293 5.60832
                CHANNELS 3 Zrotation Xrotation Yrotation
                JOINT rIndex2
                {
                  OFFSET -2.54057 -0.884171 1.56538
                  CHANNELS 3 Zrotation Xrotation Yrotation
                  End Site
                  {
                    OFFSET -1.62519 -0.234802 1.16502
                  }
                }
              }
              JOINT rMid1
              {
                OFFSET -8.24714 1.18213 3.41376
                CHANNELS 3 Zrotation Xrotation Yrotation
                JOINT rMid2
                {
                  OFFSET -3.10165 -0.590103 1.0647
                  CHANNELS 3 Zrotation Xrotation Yrotation
                  End Site
                  {
                    OFFSET -2.48547 -0.328903 0.83742
                  }
                }
              }
              JOINT rRing1
              {
                OFFSET -8.82822 0.546677 1.51678
                CHANNELS 3 Zrotation Xrotation Yrotation
                JOINT rRing2
                {
                  OFFSET -2.60934 -0.819778 -0.0198488
                  CHANNELS 3 Zrotation Xrotation Yrotation
                  End Site
                  {
                    OFFSET -2.33842 -0.294052 0.168128
                  }
                }
              }
              JOINT rPinky1
              {
                OFFSET -8.27202 -0.0477905 -0.4584
                CHANNELS 3 Zrotation Xrotation Yrotation
                JOINT rPinky2
                {
                  OFFSET -1.82734 -0.647385 -0.700984
                  CHANNELS 3 Zrotation Xrotation Yrotation
                  End Site
                  {
                    OFFSET -1.69225 -0.51767 -0.607171
                  }
                }
              }
            }
          }
        }
      }
      JOINT lCollar
      {
        OFFSET 2.68224 19.2634 -4.8768
        CHANNELS 3 Zrotation Xrotation Yrotation
        JOINT lShldr
        {
          OFFSET 8.77824 -1.95073 1.46304
          CHANNELS 3 Zrotation Xrotation Yrotation
          JOINT lForeArm
          {
            OFFSET 28.1742 -1.7115 0.48768
            CHANNELS 3 Zrotation Xrotation Yrotation
            JOINT lHand
            {
              OFFSET 22.5879 0.773209 7.07136
              CHANNELS 3 Zrotation Xrotation Yrotation
              JOINT lThumb1
              {
                OFFSET 1.2192 -0.487915 3.41376
                CHANNELS 3 Zrotation Xrotation Yrotation
                JOINT lThumb2
                {
                  OFFSET 3.37035 -0.52449 3.41376
                  CHANNELS 3 Zrotation Xrotation Yrotation
                  End Site
                  {
                    OFFSET 1.78271 -1.18214 1.43049
                  }
                }
              }
              JOINT lIndex1
              {
                OFFSET 7.75947 0.938293 5.60832
                CHANNELS 3 Zrotation Xrotation Yrotation
                JOINT lIndex2
                {
                  OFFSET 2.54057 -0.884171 1.56538
                  CHANNELS 3 Zrotation Xrotation Yrotation
                  End Site
                  {
                    OFFSET 1.62519 -0.234802 1.16502
                  }
                }
              }
              JOINT lMid1
              {
                OFFSET 8.24714 1.18213 3.41376
                CHANNELS 3 Zrotation Xrotation Yrotation
                JOINT lMid2
                {
                  OFFSET 3.10165 -0.590103 1.0647
                  CHANNELS 3 Zrotation Xrotation Yrotation
                  End Site
                  {
                    OFFSET 2.48547 -0.328903 0.83742
                  }
                }
              }
              JOINT lRing1
              {
                OFFSET 8.82822 0.546677 1.51678
                CHANNELS 3 Zrotation Xrotation Yrotation
                JOINT lRing2
                {
                  OFFSET 2.60934 -0.819778 -0.0198488
                  CHANNELS 3 Zrotation Xrotation Yrotation
                  End Site
                  {
                    OFFSET 2.33842 -0.294052 0.168128
                  }
                }
              }
              JOINT lPinky1
              {
                OFFSET 8.27202 -0.0477905 -0.4584
                CHANNELS 3 Zrotation Xrotation Yrotation
                JOINT lPinky2
                {
                  OFFSET 1.82734 -0.647385 -0.700984
                  CHANNELS 3 Zrotation Xrotation Yrotation
                  End Site
                  {
                    OFFSET 1.69225 -0.51767 -0.607171
                  }
                }
              }
            }
          }
        }
      }
    }
  }
  JOINT rButtock
  {
    OFFSET -8.77824 4.35084 1.2192
    CHANNELS 3 Zrotation Xrotation Yrotation
    JOINT rThigh
    {
      OFFSET 0 -1.70687 -2.19456
      CHANNELS 3 Zrotation Xrotation Yrotation
      JOINT rShin
      {
        OFFSET 0 -36.8199 0.73152
        CHANNELS 3 Zrotation Xrotation Yrotation
        JOINT rFoot
        {
          OFFSET 0.73152 -45.1104 -5.12064
          CHANNELS 3 Zrotation Xrotation Yrotation
          End Site
          {
            OFFSET -1.1221 -3.69964 12.103
          }
        }
      }
    }
  }
  JOINT lButtock
  {
    OFFSET 8.77824 4.35084 1.2192
    CHANNELS 3 Zrotation Xrotation Yrotation
    JOINT lThigh
    {
      OFFSET 0 -1.70687 -2.19456
      CHANNELS 3 Zrotation Xrotation Yrotation
      JOINT lShin
      {
        OFFSET 0 -36.8199 0.73152
        CHANNELS 3 Zrotation Xrotation Yrotation
        JOINT lFoot
        {
          OFFSET -0.73152 -45.1104 -5.12064
          CHANNELS 3 Zrotation Xrotation Yrotation
          End Site
          {
            OFFSET 1.1221 -3.69964 12.103
          }
        }
      }
    }
  }
}
MOTION
Frames:	5
Frame Time:	0.00833333
2.98172 85.3572 179.815 0.0 0.0 0.0 1.31605 -0.00470383 0.0362377 0.363462 -0.00359459 0.0629625 -9.56655e-15 7.95139e-16 1.51993e-23 -2.85629e-14 3.18055e-15 -2.64011e-17 -0.0 0.0 0.0 -0.0 0.0 0.0 -4.72245e-15 2.98953e-17 1.49089e-16 -9.94618e-14 6.4605e-16 3.97569e-16 -1.73778e-12 5.43278e-13 -3.18055e-15 -1.99559e-11 -4.14068e-13 -5.08889e-14 -4.70696e-11 2.77573e-13 -1.17681e-13 -8.12934e-11 4.73903e-13 -2.05941e-13 -4.70666e-11 2.75516e-13 -1.17681e-13 7.73091 5.47488 0.417314 -4.70703e-11 2.77305e-13 -1.20861e-13 2.90554 0.965183 0.102902 -4.70666e-11 2.77106e-13 -1.21656e-13 10.2786 0.731801 0.0259123 -4.70706e-11 2.78696e-13 -1.11319e-13 2.22167 -0.733487 -0.20892 -4.91892e-15 2.83423e-17 -1.49089e-16 -1.02164e-13 7.45443e-16 -1.59028e-15 -1.74921e-12 -5.0054e-13 3.49861e-14 -1.99595e-11 6.30719e-13 -9.22361e-14 -4.70918e-11 2.78655e-13 -1.20861e-13 -8.13156e-11 4.77083e-13 -2.01965e-13 -4.70965e-11 2.79094e-13 -1.17681e-13 -7.73091 5.47488 -0.417314 -4.70909e-11 2.78795e-13 -1.27222e-13 -2.90554 0.965183 -0.102902 -4.71007e-11 2.78895e-13 -1.20861e-13 -10.2786 0.731801 -0.0259123 -4.70903e-11 2.80286e-13 -1.24042e-13 -2.22167 -0.733487 0.20892 -2.03217e-16 0.0 -3.88251e-19 1.46224 -6.13863 -0.134742 0.00180643 5.56149 0.0541915 -0.477939 0.575023 0.0659429 2.03217e-16 0.0 3.88251e-19 0.544725 -1.92085 0.00800484 0.00891016 -2.07861 0.0733821 0.452833 3.99724 -0.131539
4.29694 83.4155 168.118 176.786 3.3764 -172.603 -0.556741 -1.93912 0.76664 1.82411 0.861347 0.263566 0.940487 -5.87084 0.573952 -1.35651 8.34133 0.143567 -0.0 0.0 0.0 -0.0 0.0 0.0 1.23643e-14 1.18835e-14 -6.79052e-16 22.2653 1.1605 -1.05113 -3.79503 -1.64771 6.00801 0.173069 9.25111 1.2398 -7.74902e-11 1.43146e-10 -2.76274e-10 -1.41438e-10 2.51214e-10 -4.75262e-10 -7.74855e-11 1.43145e-10 -2.76274e-10 7.73091 5.47488 0.417314 -7.74891e-11 1.43146e-10 -2.76275e-10 2.90554 0.965183 0.102902 -7.74882e-11 1.43146e-10 -2.76277e-10 10.2786 0.731801 0.0259123 -7.74929e-11 1.43148e-10 -2.76267e-10 2.22167 -0.733487 -0.20892 1.21421e-14 1.18821e-14 -9.80723e-16 -23.2242 5.33824 -1.25846 3.19215 -1.29268 -5.14405 -0.324395 12.6957 -1.63026 -4.24412e-11 -1.9687e-10 -2.24309e-10 -8.13998e-11 -3.41325e-10 -3.86108e-10 -4.24463e-11 -1.96868e-10 -2.24306e-10 -7.73091 5.47488 -0.417314 -4.244e-11 -1.96869e-10 -2.24316e-10 -2.90554 0.965183 -0.102902 -4.24486e-11 -1.96869e-10 -2.2431e-10 -10.2786 0.731801 -0.0259123 -4.24401e-11 -1.96868e-10 -2.24316e-10 -2.22167 -0.733487 0.20892 -2.03217e-16 0.0 -3.88251e-19 2.00054 -9.2925 0.734402 0.015835 11.7783 0.17009 -1.07924 -1.64175 -6.10326 2.03217e-16 0.0 3.88251e-19 -0.64056 -7.05884 -2.07148 0.0128023 5.75031 -0.0312438 0.577687 3.99876 5.26986
4.2974 83.4155 168.119 176.778 3.4051 -172.6 -2.47991 -3.98338 1.5165 3.40437 1.79071 0.466497 2.0505 -12.0702 1.21041 -2.86431 17.1382 0.34371 -0.0 0.0 0.0 -0.0 0.0 0.0 3.14761e-14 2.32955e-14 -6.67793e-16 45.7938 2.42733 -2.14295 -7.43074 -3.3274 12.371 -0.101958 19.0076 2.66148 -1.31422e-10 3.08974e-10 -5.74285e-10 -2.42734e-10 5.41627e-10 -9.87318e-10 -1.31415e-10 3.08975e-10 -5.74285e-10 7.73091 5.47488 0.417314 -1.31419e-10 3.08974e-10 -5.74283e-10 2.90554 0.965183 0.102902 -1.31421e-10 3.08975e-10 -5.74287e-10 10.2786 0.731801 0.0259123 -1.31426e-10 3.08977e-10 -5.74277e-10 2.22167 -0.733487 -0.20892 3.12239e-14 2.32944e-14 -9.75287e-16 -47.5672 10.9144 -2.62952 6.31405 -2.62367 -10.5882 0.199432 26.1115 -3.64731 -2.24245e-11 -4.19269e-10 -4.8619e-10 -5.63629e-11 -7.2768e-10 -8.37475e-10 -2.24301e-11 -4.19265e-10 -4.86187e-10 -7.73091 5.47488 -0.417314 -2.24228e-11 -4.19268e-10 -4.86197e-10 -2.90554 0.965183 -0.102902 -2.24302e-11 -4.19268e-10 -4.86192e-10 -10.2786 0.731801 -0.0259123 -2.24238e-11 -4.19266e-10 -4.86201e-10 -2.22167 -0.733487 0.20892 -2.03217e-16 0.0 -3.88251e-19 2.67587 -12.6231 1.67261 0.00190218 18.3507 0.30087 -2.23081 -3.90796 -12.6493 2.03217e-16 0.0 3.88251e-19 -2.30786 -12.4652 -4.33959 0.0486811 14.0263 -0.14572 0.7094 3.96174 10.9786
4.29506 83.416 168.101 176.769 3.401 -172.601 -4.15375 -5.80408 2.2376 4.72721 2.59108 0.665363 3.18902 -17.6053 1.79702 -4.20599 25.0233 0.470287 -0.0 0.0 0.0 -0.0 0.0 0.0 4.65378e-14 3.55906e-14 -2.33533e-15 66.9239 3.47682 -3.15857 -10.3644 -4.72615 18.0801 -0.812921 27.6979 4.14689 -1.38331e-10 4.28882e-10 -8.28588e-10 -2.61728e-10 7.52693e-10 -1.42537e-09 -1.38323e-10 4.28885e-10 -8.28588e-10 7.73091 5.47488 0.417314 -1.38327e-10 4.28883e-10 -8.28583e-10 2.90554 0.965183 0.102902 -1.38331e-10 4.28885e-10 -8.28589e-10 10.2786 0.731801 0.0259123 -1.38337e-10 4.28887e-10 -8.28579e-10 2.22167 -0.733487 -0.20892 4.62643e-14 3.55897e-14 -2.64399e-15 -68.9456 15.9832 -3.9104 8.88821 -3.7532 -15.4622 1.68343 37.9465 -6.05459 -3.314e-11 -5.91167e-10 -6.72685e-10 -8.1568e-11 -1.02493e-09 -1.15792e-09 -3.31461e-11 -5.91162e-10 -6.72683e-10 -7.73091 5.47488 -0.417314 -3.31381e-11 -5.91166e-10 -6.72692e-10 -2.90554 0.965183 -0.102902 -3.31444e-11 -5.91165e-10 -6.72689e-10 -10.2786 0.731801 -0.0259123 -3.31397e-11 -5.91163e-10 -6.727e-10 -2.22167 -0.733487 0.20892 -2.03217e-16 0.0 -3.88251e-19 3.37429 -15.5879 2.53555 -0.0385663 24.2116 0.429428 -3.69314 -5.78907 -18.532 2.03217e-16 0.0 3.88251e-19 -4.17374 -17.2444 -6.47556 0.110584 21.4079 -0.257708 0.830283 3.89466 16.0715
4.29898 83.4144 168.082 176.785 3.4088 -172.583 -5.30126 -7.06896 2.87794 5.41859 3.06908 0.853519 4.12502 -21.4868 2.18513 -4.97171 30.6304 0.35106 -0.0 0.0 0.0 -0.0 0.0 0.0 5.14747e-14 5.00933e-14 -8.19987e-15 81.9635 3.98742 -3.97813 -12.2535 -5.62792 22.1015 -1.63844 33.7747 5.39342 -2.76867e-11 4.33993e-10 -9.73622e-10 -7.49653e-11 7.65391e-10 -1.67843e-09 -2.76772e-11 4.33997e-10 -9.73622e-10 7.73091 5.47488 0.417314 -2.76808e-11 4.33993e-10 -9.73616e-10 2.90554 0.965183 0.102902 -2.76868e-11 4.33996e-10 -9.73623e-10 10.2786 0.731801 0.0259123 -2.76939e-11 4.33998e-10 -9.73612e-10 2.22167 -0.733487 -0.20892 5.1201e-14 5.00926e-14 -8.49804e-15 -83.4226 19.8133 -4.84393 10.574 -4.49755 -18.8824 3.54903 45.961 -8.35675 -1.20686e-10 -6.36811e-10 -6.70719e-10 -2.32378e-10 -1.09942e-09 -1.15106e-09 -1.20693e-10 -6.36804e-10 -6.70715e-10 -7.73091 5.47488 -0.417314 -1.20684e-10 -6.36809e-10 -6.70725e-10 -2.90554 0.965183 -0.102902 -1.2069e-10 -6.36808e-10 -6.70723e-10 -10.2786 0.731801 -0.0259123 -1.20686e-10 -6.36806e-10 -6.70734e-10 -2.22167 -0.733487 0.20892 -2.03217e-16 0.0 -3.88251e-19 3.91805 -17.6488 3.15769 -0.0848874 28.2943 0.528432 -4.9445 -6.98547 -22.6666 2.03217e-16 0.0 3.88251e-19 -5.70092 -20.5401 -8.057 0.172829 26.5539 -0.345591 0.918862 3.82819 19.6262
